<?xml version="1.0" encoding="utf-8"?>
<!DOCTYPE svg PUBLIC "-//W3C//DTD SVG 1.1//EN" "http://www.w3.org/Graphics/SVG/1.1/DTD/svg11.dtd">
<svg xmlns="http://www.w3.org/2000/svg" xmlns:xlink="http://www.w3.org/1999/xlink" version="1.1" baseProfile="full" width="16" height="16" viewBox="0 0 16.00 16.00" enable-background="new 0 0 16.00 16.00" xml:space="preserve">
	<path fill="#000000" fill-opacity="1" stroke-width="0.2" stroke-linejoin="round" d="M 8,1L 8,7L 9.5,7L 7.5,9L 5.5,7L 7,7L 7,1L 8,1 Z M 14,9.5L 14,8L 9.915,8L 10.915,7L 14,7L 14,5.5L 16,7.5L 14,9.5 Z M 11.4362,12.7291L 10.7266,12.0195C 11.4216,11.1859 11.8745,10.1434 11.9776,9L 12.9811,9C 12.8731,10.4191 12.3095,11.7108 11.4362,12.7291 Z M 6.5,15C 4.88505,15 3.40766,14.411 2.27089,13.4362L 2.98047,12.7266C 3.93422,13.5217 5.16125,14 6.49999,14C 7.83875,14 9.06578,13.5217 10.0195,12.7266L 10.7291,13.4362C 9.59234,14.411 8.11495,15 6.5,15 Z M 1.56379,4.2709L 2.27337,4.98048C 1.57841,5.81415 1.12546,6.85663 1.02242,8L 0.0189444,8C 0.126895,6.58094 0.690504,5.28924 1.56379,4.2709 Z M 2.27336,12.0195L 1.56379,12.7291C 0.690503,11.7108 0.126894,10.4191 0.0189441,9L 1.02242,9C 1.12545,10.1434 1.5784,11.1859 2.27336,12.0195 Z M 6,2.01895L 6,3.02243C 4.85662,3.12547 3.81415,3.57842 2.98047,4.27337L 2.2709,3.56379C 3.28924,2.69051 4.58094,2.1269 6,2.01895 Z "/>
</svg>
