<?xml version="1.0" encoding="utf-8"?>
<!DOCTYPE svg PUBLIC "-//W3C//DTD SVG 1.1//EN" "http://www.w3.org/Graphics/SVG/1.1/DTD/svg11.dtd">
<svg xmlns="http://www.w3.org/2000/svg" xmlns:xlink="http://www.w3.org/1999/xlink" version="1.1" baseProfile="full" width="16" height="16" viewBox="0 0 16.00 16.00" enable-background="new 0 0 16.00 16.00" xml:space="preserve">
	<path fill="#000000" fill-opacity="1" stroke-width="0.2" stroke-linejoin="round" d="M 1,15L 4,15L 4,16L 0,16L 0,12L 1,12L 1,15 Z M 15,12L 16,12L 16,16L 12,16L 12,15L 15,15L 15,12 Z M 16,2.86102e-006L 16,4L 15,4L 15,1L 12,1L 12,2.86102e-006L 16,2.86102e-006 Z M 1,4L 0,4L 0,2.86102e-006L 4,2.86102e-006L 4,1L 1,1L 1,4 Z M 4,12C 4,10.4298 4.90478,9.07086 6.22144,8.41618C 5.48059,7.86992 5,6.99109 5,6C 5,4.34315 6.34315,3 8,3C 9.65685,3 11,4.34315 11,6C 11,6.99109 10.5194,7.86992 9.77856,8.41618C 11.0952,9.07086 12,10.4298 12,12L 11,12C 11,10.3431 9.65685,9 8,9C 6.34314,9 5,10.3432 5,12L 4,12 Z M 8,4.00001C 6.89543,4.00001 6,4.89544 6,6C 6,7.10457 6.89543,8 8,8C 9.10457,8 10,7.10457 10,6C 10,4.89544 9.10457,4.00001 8,4.00001 Z "/>
</svg>
