<?xml version="1.0" encoding="utf-8"?>
<!DOCTYPE svg PUBLIC "-//W3C//DTD SVG 1.1//EN" "http://www.w3.org/Graphics/SVG/1.1/DTD/svg11.dtd">
<svg xmlns="http://www.w3.org/2000/svg" xmlns:xlink="http://www.w3.org/1999/xlink" version="1.1" baseProfile="full" width="16" height="16" viewBox="0 0 16.00 16.00" enable-background="new 0 0 16.00 16.00" xml:space="preserve">
	<path fill="#000000" fill-opacity="1" stroke-width="0.2" stroke-linejoin="round" d="M 6,9.53674e-007C 8.20914,9.53674e-007 10,1.79086 10,4C 10,5.42739 9.25235,6.68015 8.12729,7.38804C 8.88596,7.67578 9.57109,8.11294 10.1468,8.66359L 9.34905,9.28729C 8.4626,8.48716 7.28819,8 6,8C 3.23858,8 1,10.2386 1,13L 7.94729e-008,13C 7.94729e-008,10.4354 1.60905,8.24658 3.8727,7.38804C 2.74765,6.68015 2,5.42739 2,4C 2,1.79086 3.79086,9.53674e-007 6,9.53674e-007 Z M 6,1.00001C 4.34314,1.00001 3,2.34315 3,4.00001C 3,5.65686 4.34314,7 6,7C 7.65685,7 9,5.65686 9,4.00001C 9,2.34315 7.65685,1.00001 6,1.00001 Z M 12.5,9C 14.433,9 16,10.567 16,12.5C 16,14.433 14.433,16 12.5,16C 10.567,16 9,14.433 9,12.5C 9,10.567 10.567,9 12.5,9 Z M 10.7322,14.2678C 11.5875,15.123 12.9082,15.2291 13.8789,14.586L 10.414,11.1211C 9.77094,12.0918 9.877,13.4125 10.7322,14.2678 Z M 14.2678,10.7322C 13.4125,9.87701 12.0918,9.77094 11.1212,10.414L 14.586,13.8788C 15.2291,12.9082 15.123,11.5875 14.2678,10.7322 Z "/>
</svg>
