<?xml version="1.0" encoding="utf-8"?>
<!DOCTYPE svg PUBLIC "-//W3C//DTD SVG 1.1//EN" "http://www.w3.org/Graphics/SVG/1.1/DTD/svg11.dtd">
<svg xmlns="http://www.w3.org/2000/svg" xmlns:xlink="http://www.w3.org/1999/xlink" version="1.1" baseProfile="full" width="16" height="16" viewBox="0 0 16.00 16.00" enable-background="new 0 0 16.00 16.00" xml:space="preserve">
	<path fill="#000000" fill-opacity="1" stroke-width="0.2" stroke-linejoin="round" d="M 11,13L 13,13L 13,11L 14,11L 14,13L 16,13L 16,14L 14,14L 14,16L 13,16L 13,14L 11,14L 11,13 Z M 6,3.8147e-006C 8.20914,3.8147e-006 10,1.79086 10,4C 10,5.42739 9.25235,6.68015 8.1273,7.38804C 10.0902,8.13252 11.5609,9.87729 11.917,12L 10.9,12C 10.4367,9.71776 8.41896,8 6,8C 3.23858,8 1,10.2386 1,13L -6.35783e-007,13C -6.35783e-007,10.4354 1.60905,8.24658 3.8727,7.38804C 2.74765,6.68015 2,5.42739 2,4C 2,1.79086 3.79086,3.8147e-006 6,3.8147e-006 Z M 6,1.00001C 4.34314,1.00001 3,2.34315 3,4.00001C 3,5.65686 4.34314,7 6,7C 7.65685,7 9,5.65686 9,4.00001C 9,2.34315 7.65685,1.00001 6,1.00001 Z "/>
</svg>
