<?xml version="1.0" encoding="utf-8"?>
<!DOCTYPE svg PUBLIC "-//W3C//DTD SVG 1.1//EN" "http://www.w3.org/Graphics/SVG/1.1/DTD/svg11.dtd">
<svg xmlns="http://www.w3.org/2000/svg" xmlns:xlink="http://www.w3.org/1999/xlink" version="1.1" baseProfile="full" width="16" height="16" viewBox="0 0 16.00 16.00" enable-background="new 0 0 16.00 16.00" xml:space="preserve">
	<path fill="#000000" fill-opacity="1" stroke-width="0.2" stroke-linejoin="round" d="M 11.5,15.75L 9.37868,13.6287L 10.0858,12.9216L 11.5,14.3358L 15.2123,10.6235L 15.9194,11.3306L 11.5,15.75 Z M 8,2.86102e-006C 10.7614,2.86102e-006 13,2.23858 13,5C 13,6.90733 11.932,8.56523 10.3615,9.40832C 11.4401,9.79479 12.3963,10.4385 13.1561,11.2655L 12.4482,11.9734C 11.3504,10.7613 9.7641,10 8,10C 4.68629,10 2,12.6863 2,16L 1,16C 1,12.9627 2.93446,10.3772 5.63854,9.40832C 4.06797,8.56523 3,6.90733 3,5C 3,2.23858 5.23858,2.86102e-006 8,2.86102e-006 Z M 15,16L 14,16L 13.8773,14.7869L 14.6995,13.9647C 14.8949,14.6088 15,15.2921 15,16 Z M 8,1.00001C 5.79086,1.00001 4,2.79087 4,5.00001C 4,7.20914 5.79086,9 8,9C 10.2091,9 12,7.20914 12,5.00001C 12,2.79087 10.2091,1.00001 8,1.00001 Z "/>
</svg>
