<?xml version="1.0" encoding="utf-8"?>
<!DOCTYPE svg PUBLIC "-//W3C//DTD SVG 1.1//EN" "http://www.w3.org/Graphics/SVG/1.1/DTD/svg11.dtd">
<svg xmlns="http://www.w3.org/2000/svg" xmlns:xlink="http://www.w3.org/1999/xlink" version="1.1" baseProfile="full" width="16" height="16" viewBox="0 0 16.00 16.00" enable-background="new 0 0 16.00 16.00" xml:space="preserve">
	<path fill="#000000" fill-opacity="1" stroke-width="0.2" stroke-linejoin="round" d="M 9.335,8.665L 11.18,10.5L 9.335,12.335L 8.665,11.665L 9.3275,11L 5,11L 5,10L 9.3275,10L 8.665,9.335L 9.335,8.665 Z M 6.6725,13L 11,13L 11,14L 6.6725,14L 7.335,14.665L 6.665,15.335L 4.82,13.5L 6.665,11.665L 7.335,12.335L 6.6725,13 Z M 8,2.86102e-006C 9.65685,2.86102e-006 11,1.34315 11,3C 11,3.95561 10.5532,4.80686 9.85711,5.35625C 11.699,6.0935 13,7.89481 13,10L 12,10C 12,7.79086 10.2091,6 8,6C 5.79086,6 4,7.79086 4,10L 3,10C 3,7.89482 4.30102,6.0935 6.14289,5.35625C 5.4468,4.80686 5,3.95561 5,3C 5,1.34315 6.34315,2.86102e-006 8,2.86102e-006 Z M 8,1.00001C 6.89543,1.00001 6,1.89544 6,3.00001C 6,4.10458 6.89543,5.00001 8,5.00001C 9.10457,5.00001 10,4.10458 10,3.00001C 10,1.89544 9.10457,1.00001 8,1.00001 Z "/>
</svg>
