<?xml version="1.0" encoding="utf-8"?>
<!DOCTYPE svg PUBLIC "-//W3C//DTD SVG 1.1//EN" "http://www.w3.org/Graphics/SVG/1.1/DTD/svg11.dtd">
<svg xmlns="http://www.w3.org/2000/svg" xmlns:xlink="http://www.w3.org/1999/xlink" version="1.1" baseProfile="full" width="16" height="16" viewBox="0 0 16.00 16.00" enable-background="new 0 0 16.00 16.00" xml:space="preserve">
	<path fill="#000000" fill-opacity="1" stroke-width="0.2" stroke-linejoin="round" d="M 8,16L 7,16C 7,14.3431 5.65685,13 4,13C 2.34315,13 1,14.3431 1,16L -7.94729e-008,16C -7.94729e-008,14.4298 0.90478,13.0709 2.22144,12.4162C 1.48059,11.8699 1,10.9911 1,10C 1,8.34315 2.34315,7 4,7C 4.99108,7 5.86992,7.48059 6.41617,8.22144C 6.80448,7.44051 7.44051,6.80448 8.22144,6.41617C 7.48059,5.86992 7,4.99108 7,4C 7,2.34315 8.34315,1 10,1C 11.6569,1 13,2.34315 13,4C 13,4.99108 12.5194,5.86992 11.7786,6.41617C 13.0952,7.07086 14,8.42977 14,10L 13,10C 13,8.34315 11.6569,7 10,7C 8.34315,7 7,8.34315 7,10C 7,10.9911 6.51941,11.8699 5.77856,12.4162C 7.09522,13.0709 8,14.4298 8,16 Z M 4,8.00001C 2.89543,8.00001 2,8.89544 2,10C 2,11.1046 2.89543,12 4,12C 5.10457,12 6,11.1046 6,10C 6,8.89544 5.10457,8.00001 4,8.00001 Z M 10,2.00001C 8.89543,2.00001 8,2.89544 8,4.00001C 8,5.10458 8.89543,6 10,6C 11.1046,6 12,5.10458 12,4.00001C 12,2.89544 11.1046,2.00001 10,2.00001 Z M 13,11L 14,11L 14,13L 16,13L 16,14L 14,14L 14,16L 13,16L 13,14L 11,14L 11,13L 13,13L 13,11 Z "/>
</svg>
