<?xml version="1.0" encoding="utf-8"?>
<!DOCTYPE svg PUBLIC "-//W3C//DTD SVG 1.1//EN" "http://www.w3.org/Graphics/SVG/1.1/DTD/svg11.dtd">
<svg xmlns="http://www.w3.org/2000/svg" xmlns:xlink="http://www.w3.org/1999/xlink" version="1.1" baseProfile="full" width="16" height="16" viewBox="0 0 16.00 16.00" enable-background="new 0 0 16.00 16.00" xml:space="preserve">
	<path fill="#000000" fill-opacity="1" stroke-width="0.2" stroke-linejoin="round" d="M 11,11L 16,11L 16,16L 11,16L 11,11 Z M 12,12L 12,15L 15,15L 15,12L 12,12 Z M 7,3.8147e-006C 9.20914,3.8147e-006 11,1.79086 11,4C 11,5.42739 10.2523,6.68015 9.1273,7.38804C 10.4263,7.88073 11.5098,8.81151 12.1973,10L 11.0004,10C 10.0882,8.78555 8.63581,8 7,8C 4.23857,8 2,10.2386 2,13L 0.999999,13C 0.999999,10.4354 2.60905,8.24658 4.8727,7.38804C 3.74765,6.68015 3,5.42739 3,4C 3,1.79086 4.79086,3.8147e-006 7,3.8147e-006 Z M 7,1.00001C 5.34314,1.00001 4,2.34315 4,4.00001C 4,5.65686 5.34314,7 7,7C 8.65685,7 10,5.65686 10,4.00001C 10,2.34315 8.65685,1.00001 7,1.00001 Z "/>
</svg>
