<?xml version="1.0" encoding="utf-8"?>
<!DOCTYPE svg PUBLIC "-//W3C//DTD SVG 1.1//EN" "http://www.w3.org/Graphics/SVG/1.1/DTD/svg11.dtd">
<svg xmlns="http://www.w3.org/2000/svg" xmlns:xlink="http://www.w3.org/1999/xlink" version="1.1" baseProfile="full" width="16" height="16" viewBox="0 0 16.00 16.00" enable-background="new 0 0 16.00 16.00" xml:space="preserve">
	<path fill="#000000" fill-opacity="1" stroke-width="0.2" stroke-linejoin="round" d="M 1,15.5L 1,16L 0,16L 0,15.5C -6.35783e-007,13.1672 1.45231,11.1736 3.5021,10.3741C 2.59417,9.74181 2,8.69029 2,7.5C 2,5.56701 3.567,4 5.5,4C 7.433,4 9,5.567 9,7.5C 9,8.69029 8.40582,9.74181 7.4979,10.3741C 9.54768,11.1736 11,13.1672 11,15.5L 11,16L 10,16L 10,15.5C 10,13.0147 7.98528,11 5.5,11C 3.01472,11 1,13.0147 1,15.5 Z M 11,8L 9.97218,8L 9.97248,7L 12,7L 12,8.58579L 13.5858,7L 15,7L 15,1L 5,1L 5,3.02752L 4,3.25611L 4,9.53674e-007L 16,9.53674e-007L 16,8L 14,8L 11,11L 11,8 Z M 5.5,5.00001C 4.11929,5.00001 3,6.11929 3,7.5C 3,8.88072 4.11929,10 5.5,10C 6.88071,10 8,8.88072 8,7.5C 8,6.11929 6.88071,5.00001 5.5,5.00001 Z "/>
</svg>
