<?xml version="1.0" encoding="utf-8"?>
<!DOCTYPE svg PUBLIC "-//W3C//DTD SVG 1.1//EN" "http://www.w3.org/Graphics/SVG/1.1/DTD/svg11.dtd">
<svg xmlns="http://www.w3.org/2000/svg" xmlns:xlink="http://www.w3.org/1999/xlink" version="1.1" baseProfile="full" width="16" height="16" viewBox="0 0 16.00 16.00" enable-background="new 0 0 16.00 16.00" xml:space="preserve">
	<path fill="#000000" fill-opacity="1" stroke-width="0.2" stroke-linejoin="round" d="M 13,8.5C 14.3807,8.5 15.5,9.61929 15.5,11C 15.5,11.5629 15.314,12.0824 15,12.5002L 15,16L 13,14.9366L 11,16L 11,12.5002C 10.686,12.0824 10.5,11.5629 10.5,11C 10.5,9.61929 11.6193,8.5 13,8.5 Z M 14,13.292C 13.6938,13.4258 13.3555,13.5 13,13.5C 12.6444,13.5 12.3062,13.4258 12,13.292L 12,14.3357L 13,13.804L 14,14.3357L 14,13.292 Z M 13,9.5C 12.1716,9.5 11.5,10.1716 11.5,11C 11.5,11.8284 12.1716,12.5 13,12.5C 13.8284,12.5 14.5,11.8284 14.5,11C 14.5,10.1716 13.8284,9.5 13,9.5 Z M 8,3.8147e-006C 10.2091,3.8147e-006 12,1.79086 12,4C 12,5.40141 11.2793,6.6345 10.1883,7.34886C 10.6137,7.48874 11.0211,7.66829 11.4061,7.88315C 11.0705,8.05512 10.7663,8.27972 10.5044,8.54605C 9.74219,8.19549 8.89392,8 8,8C 4.68629,8 2,10.6863 2,14L 0.999999,14C 0.999999,10.8982 3.01741,8.26768 5.81166,7.34886C 4.72069,6.6345 4,5.40141 4,4C 4,1.79086 5.79086,3.8147e-006 8,3.8147e-006 Z M 8,1.00001C 6.34314,1.00001 5,2.34315 5,4.00001C 5,5.65686 6.34314,7 8,7C 9.65685,7 11,5.65686 11,4.00001C 11,2.34315 9.65685,1.00001 8,1.00001 Z "/>
</svg>
