<?xml version="1.0" encoding="utf-8"?>
<!DOCTYPE svg PUBLIC "-//W3C//DTD SVG 1.1//EN" "http://www.w3.org/Graphics/SVG/1.1/DTD/svg11.dtd">
<svg xmlns="http://www.w3.org/2000/svg" xmlns:xlink="http://www.w3.org/1999/xlink" version="1.1" baseProfile="full" width="16" height="16" viewBox="0 0 16.00 16.00" enable-background="new 0 0 16.00 16.00" xml:space="preserve">
	<path fill="#000000" fill-opacity="1" stroke-width="0.2" stroke-linejoin="round" d="M 9,15L 8,15C 8,13.3431 6.65685,12 5,12C 3.34315,12 2,13.3431 2,15L 1,15C 1,13.4298 1.90478,12.0709 3.22144,11.4162C 2.48059,10.8699 2,9.99109 2,9C 2,7.34315 3.34315,6 5,6C 5.99108,6 6.86992,6.48059 7.41617,7.22144C 7.80448,6.44051 8.44051,5.80448 9.22144,5.41617C 8.48059,4.86992 8,3.99108 8,3C 8,1.34315 9.34315,0 11,0C 12.6569,0 14,1.34315 14,3C 14,3.99108 13.5194,4.86992 12.7786,5.41617C 14.0952,6.07086 15,7.42977 15,9L 14,9C 14,7.34314 12.6569,6 11,6C 9.34315,6 8,7.34315 8,9C 8,9.99109 7.51941,10.8699 6.77856,11.4162C 8.09522,12.0709 9,13.4298 9,15 Z M 5,7C 3.89543,7 3,7.89543 3,9C 3,10.1046 3.89543,11 5,11C 6.10457,11 7,10.1046 7,9C 7,7.89543 6.10457,7 5,7 Z M 11,1C 9.89543,1 9,1.89543 9,3C 9,4.10457 9.89543,5 11,5C 12.1046,5 13,4.10457 13,3C 13,1.89543 12.1046,1 11,1 Z "/>
</svg>
