<?xml version="1.0" encoding="utf-8"?>
<!DOCTYPE svg PUBLIC "-//W3C//DTD SVG 1.1//EN" "http://www.w3.org/Graphics/SVG/1.1/DTD/svg11.dtd">
<svg xmlns="http://www.w3.org/2000/svg" xmlns:xlink="http://www.w3.org/1999/xlink" version="1.1" baseProfile="full" width="16" height="16" viewBox="0 0 16.00 16.00" enable-background="new 0 0 16.00 16.00" xml:space="preserve">
	<path fill="#000000" fill-opacity="1" stroke-width="0.2" stroke-linejoin="round" d="M 16,1L 16,14L 0,14L 0,1L 16,1 Z M 1,13L 10,13L 10,2L 1,2L 1,13 Z M 15,2L 11,2L 11,13L 15,13L 15,2 Z M 14,4L 12,4L 12,3L 14,3L 14,4 Z M 14,6L 12,6L 12,5L 14,5L 14,6 Z M 14,8L 12,8L 12,7L 14,7L 14,8 Z M 13,9C 13.5523,9 14,9.44772 14,10C 14,10.5523 13.5523,11 13,11C 12.4477,11 12,10.5523 12,10C 12,9.44772 12.4477,9 13,9 Z M 6.94783,7.89358C 8.22443,8.28018 8.88871,7.71882 9.23438,8.1797C 9.64141,8.72241 8.25034,10.8883 7.28125,10.9453C 6.64716,10.9826 5.77562,9.57549 5.44602,8.99905L 5.10665,8.9479C 4.72474,10.2193 5.28284,10.8816 4.82291,11.2266C 4.2802,11.6336 2.11429,10.2425 2.05728,9.27344C 2.01988,8.6376 3.43485,7.76303 4.00829,7.4355L 4.04908,7.118C 2.7813,6.73942 2.12048,7.29519 1.77604,6.83594C 1.36901,6.29323 2.76008,4.12732 3.72917,4.07032C 4.35762,4.03335 5.2193,5.41522 5.55547,6.00101L 5.89478,6.05249C 6.27384,4.78419 5.71773,4.12316 6.17708,3.77865C 6.71979,3.37162 8.8857,4.76268 8.94271,5.73177C 8.98013,6.36798 7.56346,7.24322 6.99068,7.57029L 6.94783,7.89358 Z M 5.5,7C 5.22386,7 5,7.22386 5,7.5C 5,7.77614 5.22386,8 5.5,8C 5.77614,8 6,7.77614 6,7.5C 6,7.22386 5.77614,7 5.5,7 Z M 3.74479,4.94532C 3.74524,4.88237 2.86979,5.69532 2.79166,6.03907C 2.79166,6.03907 3.82273,6.07589 4.49231,6.38888L 4.78468,6.18122C 4.60667,5.92797 4.17573,5.34035 3.74479,4.94532 Z M 7.26563,10.0703C 7.26517,10.1333 8.14062,9.32033 8.21875,8.97658C 8.21875,8.97658 7.16882,8.93908 6.4999,8.61814L 6.21492,8.819C 6.38574,9.06305 6.82568,9.66705 7.26563,10.0703 Z M 8.06771,5.7474C 8.13066,5.74785 7.31771,4.8724 6.97396,4.79428C 6.97396,4.79428 6.93685,5.83338 6.62048,6.50272L 6.82337,6.79321C 7.0718,6.61899 7.66823,6.18319 8.06771,5.7474 Z M 2.93228,9.25781C 2.86933,9.25736 3.68228,10.1328 4.02603,10.2109C 4.02603,10.2109 4.06327,9.1683 4.38113,8.49908L 4.17865,8.21058C 3.93146,8.38383 3.33286,8.82082 2.93228,9.25781 Z "/>
</svg>
