<?xml version="1.0" encoding="utf-8"?>
<!DOCTYPE svg PUBLIC "-//W3C//DTD SVG 1.1//EN" "http://www.w3.org/Graphics/SVG/1.1/DTD/svg11.dtd">
<svg xmlns="http://www.w3.org/2000/svg" xmlns:xlink="http://www.w3.org/1999/xlink" version="1.1" baseProfile="full" width="16" height="16" viewBox="0 0 16.00 16.00" enable-background="new 0 0 16.00 16.00" xml:space="preserve">
	<path fill="#000000" fill-opacity="1" stroke-width="0.2" stroke-linejoin="round" d="M 8,2C 8.79898,2 9.5667,2.13386 10.2819,2.38038C 10.8433,1.54767 11.7952,1 12.875,1C 14.6009,1 16,2.39911 16,4.125C 16,5.2048 15.4523,6.15669 14.6196,6.71805C 14.8661,7.4333 15,8.20102 15,9C 15,10.764 14.3475,12.3755 13.2708,13.6066L 14.8321,15.1679L 14.125,15.875L 12.5606,14.3106C 11.3356,15.3636 9.74211,16 8,16C 6.25789,16 4.66442,15.3636 3.43939,14.3106L 1.875,15.875L 1.16789,15.1679L 2.72923,13.6066C 1.65247,12.3755 1,10.764 1,9C 1,8.20102 1.13386,7.4333 1.38038,6.71805C 0.547665,6.15669 -3.17891e-007,5.2048 -3.17891e-007,4.125C -3.17891e-007,2.39911 1.39911,1 3.125,1C 4.2048,1 5.15669,1.54767 5.71805,2.38038C 6.4333,2.13386 7.20102,2 8,2 Z M 8,3.00001C 4.68629,3.00001 2,5.6863 2,9.00001C 2,12.3137 4.68629,15 8,15C 11.3137,15 14,12.3137 14,9.00001C 14,5.6863 11.3137,3.00001 8,3.00001 Z M 3.125,2.04168C 1.9744,2.04168 1.04167,2.97442 1.04167,4.12501C 1.04167,4.7748 1.33915,5.3551 1.80535,5.73717C 2.46412,4.48906 3.48904,3.46413 4.73716,2.80536C 4.3551,2.33916 3.77479,2.04168 3.125,2.04168 Z M 14.9583,4.12501C 14.9583,2.97442 14.0256,2.04168 12.875,2.04168C 12.2252,2.04168 11.6449,2.33916 11.2628,2.80536C 12.5109,3.46413 13.5359,4.48905 14.1946,5.73717C 14.6608,5.3551 14.9583,4.7748 14.9583,4.12501 Z M 7,5L 8,5L 8,9L 11,9L 11,10L 7,10L 7,5 Z "/>
</svg>
