<?xml version="1.0" encoding="utf-8"?>
<!DOCTYPE svg PUBLIC "-//W3C//DTD SVG 1.1//EN" "http://www.w3.org/Graphics/SVG/1.1/DTD/svg11.dtd">
<svg xmlns="http://www.w3.org/2000/svg" xmlns:xlink="http://www.w3.org/1999/xlink" version="1.1" baseProfile="full" width="16" height="16" viewBox="0 0 16.00 16.00" enable-background="new 0 0 16.00 16.00" xml:space="preserve">
	<path fill="#000000" fill-opacity="1" stroke-width="0.2" stroke-linejoin="round" d="M 13.5,9C 14.8807,9 16,10.1193 16,11.5C 16,12.8807 14.8807,14 13.5,14C 12.9904,14 12.5165,13.8476 12.1213,13.5858L 9.89367,15.8134C 9.69841,16.0087 9.38182,16.0087 9.18656,15.8134C 8.9913,15.6181 8.9913,15.3016 9.18656,15.1063L 11.4142,12.8787C 11.1524,12.4835 11,12.0095 11,11.5C 11,10.1193 12.1193,9 13.5,9 Z M 13.5,10C 12.6716,10 12,10.6716 12,11.5C 12,12.3284 12.6716,13 13.5,13C 14.3284,13 15,12.3284 15,11.5C 15,10.6716 14.3284,10 13.5,10 Z M 16,1L 16,8.70487C 15.705,8.4408 15.3679,8.22276 15,8.06203L 15,5L 1,5L 1,13L 9.52512,13L 8.52512,14L 0,14L 0,1L 16,1 Z M 15,4.00001L 15,2.00001L 0.999999,2.00001L 0.999999,4.00001L 15,4.00001 Z "/>
</svg>
