<?xml version="1.0" encoding="utf-8"?>
<!DOCTYPE svg PUBLIC "-//W3C//DTD SVG 1.1//EN" "http://www.w3.org/Graphics/SVG/1.1/DTD/svg11.dtd">
<svg xmlns="http://www.w3.org/2000/svg" xmlns:xlink="http://www.w3.org/1999/xlink" version="1.1" baseProfile="full" width="16" height="16" viewBox="0 0 16.00 16.00" enable-background="new 0 0 16.00 16.00" xml:space="preserve">
	<path fill="#000000" fill-opacity="1" stroke-width="0.2" stroke-linejoin="round" d="M 14,8.3125L 15,7.3125L 15,14L 0,14L 0,1L 12.7425,1L 12.1725,1.4725L 11.6575,2L 1,2L 1,4L 9.6575,4L 8.6575,5L 1,5L 1,13L 14,13L 14,8.3125 Z M 3,12L 3,11L 5,11C 5.55228,11 6,10.5523 6,10C 6,8.93717 6.82903,8.06797 7.87571,8.0038L 13.435,2.44451C 14.0208,1.85873 14.9705,1.85872 15.5563,2.44451C 16.1421,3.0303 16.1421,3.98004 15.5563,4.56583L 9.99609,10.1261C 9.93104,11.1719 9.06223,12 8,12L 3,12 Z M 7.99999,9.00001C 7.44771,9.00001 6.99999,9.44772 6.99999,10C 7,10.75 6.74999,11 6.74999,11L 7.99999,11C 8.55228,11 9,10.5523 9,10C 9,9.44772 8.55228,9.00001 7.99999,9.00001 Z M 14.8492,3.85873C 15.0445,3.66347 15.0445,3.34688 14.8492,3.15162C 14.6539,2.95636 14.3374,2.95636 14.1421,3.15162L 10.6314,6.66236L 11.3384,7.36956L 14.8492,3.85873 Z M 9.01651,8.27722C 9.30767,8.44939 9.5514,8.69327 9.7234,8.98454L 10.6248,8.08314C 10.4269,7.81264 10.1882,7.57388 9.91782,7.37591L 9.01651,8.27722 Z "/>
</svg>
