<?xml version="1.0" encoding="utf-8"?>
<!DOCTYPE svg PUBLIC "-//W3C//DTD SVG 1.1//EN" "http://www.w3.org/Graphics/SVG/1.1/DTD/svg11.dtd">
<svg xmlns="http://www.w3.org/2000/svg" xmlns:xlink="http://www.w3.org/1999/xlink" version="1.1" baseProfile="full" width="16" height="16" viewBox="0 0 16.00 16.00" enable-background="new 0 0 16.00 16.00" xml:space="preserve">
	<path fill="#000000" fill-opacity="1" stroke-width="0.2" stroke-linejoin="round" d="M 16,1L 16,8L 15,8L 15,5L 1,5L 1,13L 5,13L 5,14L 0,14L 0,1L 16,1 Z M 15,4L 15,2L 1,2L 1,4L 15,4 Z M 13.71,9L 16,9L 16,16L 6,16L 6,9L 8.29,9L 9.29,8L 12.71,8L 13.71,9 Z M 15,10L 13.29,10L 12.29,9L 9.71,9L 8.71,10L 7,10L 7,15L 15,15L 15,10 Z M 11,10C 12.1046,10 13,10.8954 13,12C 13,13.1046 12.1046,14 11,14C 9.89543,14 9,13.1046 9,12C 9,10.8954 9.89543,10 11,10 Z M 11,11C 10.4477,11 10,11.4477 10,12C 10,12.5523 10.4477,13 11,13C 11.5523,13 12,12.5523 12,12C 12,11.4477 11.5523,11 11,11 Z "/>
</svg>
