<?xml version="1.0" encoding="utf-8"?>
<!DOCTYPE svg PUBLIC "-//W3C//DTD SVG 1.1//EN" "http://www.w3.org/Graphics/SVG/1.1/DTD/svg11.dtd">
<svg xmlns="http://www.w3.org/2000/svg" xmlns:xlink="http://www.w3.org/1999/xlink" version="1.1" baseProfile="full" width="16" height="16" viewBox="0 0 16.00 16.00" enable-background="new 0 0 16.00 16.00" xml:space="preserve">
	<path fill="#000000" fill-opacity="1" stroke-width="0.2" stroke-linejoin="round" d="M 16,1L 16,6.28L 15,6.165L 15,5L 1,5L 1,13L 6.265,13L 6.8825,14L 0,14L 0,1L 16,1 Z M 15,2L 1,2L 1,4L 15,4L 15,2 Z M 16,7.75L 16,9.8C 16,11.8 15,14 11.5,16C 8,14 7,11.8 7,9.8L 7,7.75C 10,7.75 9.5,6.5 11.5,6.5C 13.5,6.5 13,7.75 16,7.75 Z M 15,8.65001C 13.5,8.65001 12.5,7.5 11.5,7.50001C 10.5,7.50002 9.5,8.65001 7.99999,8.65001L 8,10C 8,11.6667 9,13.15 11.5,14.9C 14,13.15 15,11.5556 15,10L 15,8.65001 Z "/>
</svg>
