<?xml version="1.0" encoding="utf-8"?>
<!DOCTYPE svg PUBLIC "-//W3C//DTD SVG 1.1//EN" "http://www.w3.org/Graphics/SVG/1.1/DTD/svg11.dtd">
<svg xmlns="http://www.w3.org/2000/svg" xmlns:xlink="http://www.w3.org/1999/xlink" version="1.1" baseProfile="full" width="16" height="16" viewBox="0 0 16.00 16.00" enable-background="new 0 0 16.00 16.00" xml:space="preserve">
	<path fill="#000000" fill-opacity="1" stroke-width="0.2" stroke-linejoin="round" d="M 0,1L 16,1L 16,6L 15,6L 15,16L 1,16L 1,6L 0,6L 0,1 Z M 14,15L 14,6L 2,6L 2,15L 14,15 Z M 15,5L 15,2L 1,2L 1,5L 15,5 Z M 13,10L 13,11L 8,11L 8,10L 13,10 Z M 9,13L 9,12L 13,12L 13,13L 9,13 Z "/>
</svg>
