<?xml version="1.0" encoding="utf-8"?>
<!DOCTYPE svg PUBLIC "-//W3C//DTD SVG 1.1//EN" "http://www.w3.org/Graphics/SVG/1.1/DTD/svg11.dtd">
<svg xmlns="http://www.w3.org/2000/svg" xmlns:xlink="http://www.w3.org/1999/xlink" version="1.1" baseProfile="full" width="16" height="16" viewBox="0 0 16.00 16.00" enable-background="new 0 0 16.00 16.00" xml:space="preserve">
	<path fill="#000000" fill-opacity="1" stroke-width="0.2" stroke-linejoin="round" d="M 0,2L 1,2L 1,3L 0,3L 0,2 Z M 0,4.00001L 1,4.00001L 1,5.00001L 0,5.00001L 0,4.00001 Z M 0,6L 1,6L 1,7L 0,7L 0,6 Z M 0,8L 1,8L 1,9L 0,9L 0,8 Z M 0,12L 1,12L 1,13L 0,13L 0,12 Z M 15,12L 16,12L 16,13L 15,13L 15,12 Z M 0,10L 1,10L 1,11L 0,11L 0,10 Z M 15,10L 16,10L 16,11L 15,11L 15,10 Z M 15,8L 16,8L 16,9L 15,9L 15,8 Z M 15,6L 16,6L 16,7L 15,7L 15,6 Z M 15,4.00001L 16,4.00001L 16,5.00001L 15,5.00001L 15,4.00001 Z M 16,2.00001L 16,3.00001L 15,3.00001L 15,2.00001L 16,2.00001 Z M 2,12L 14,12L 14,13L 2,13L 2,12 Z M 2,2.00001L 14,2.00001L 14,3.00001L 2,3.00001L 2,2.00001 Z M 9.5,6C 9.77614,6 10,6.22386 10,6.5C 10,6.77615 9.77614,7 9.5,7C 9.22385,7 9,6.77615 9,6.5C 9,6.22386 9.22386,6 9.5,6 Z M 9.5,8C 9.77614,8 10,8.22386 10,8.5C 10,8.77615 9.77614,9 9.5,9C 9.22386,9 9,8.77615 9,8.5C 9,8.22386 9.22386,8 9.5,8 Z M 4,5L 4,10L 3,10L 3,6.73244C 2.70583,6.90261 2.36429,7 2,7L 2,6C 2.55228,6 3,5.55229 3,5L 4,5 Z M 6.55,6.9C 7.40604,6.9 8.1,7.59396 8.1,8.45C 8.1,9.30604 7.40604,10 6.55,10C 5.69396,10 5,9.30604 5,8.45L 5,8C 5,6.34315 6.34314,5 8,5L 8,6C 7.29443,6 6.67419,6.36537 6.31817,6.91722L 6.55,6.9 Z M 6.55999,7.88001C 6.25072,7.88001 5.99999,8.13073 5.99999,8.44C 5.99999,8.74928 6.25072,9.00001 6.55999,9.00001C 6.86927,9.00001 7.11999,8.74928 7.11999,8.44C 7.11999,8.13073 6.86927,7.88001 6.55999,7.88001 Z M 12.45,8.1C 11.594,8.1 10.9,7.40604 10.9,6.55C 10.9,5.69396 11.594,5 12.45,5C 13.306,5 14,5.69396 14,6.55L 14,7C 14,8.65685 12.6569,10 11,10L 11,9C 11.7056,9 12.3258,8.63463 12.6818,8.08278L 12.45,8.1 Z M 12.44,7.12C 12.7493,7.12 13,6.86927 13,6.56C 13,6.25072 12.7493,6 12.44,6C 12.1307,6 11.88,6.25072 11.88,6.56C 11.88,6.86927 12.1307,7.12 12.44,7.12 Z "/>
</svg>
