<?xml version="1.0" encoding="utf-8"?>
<!DOCTYPE svg PUBLIC "-//W3C//DTD SVG 1.1//EN" "http://www.w3.org/Graphics/SVG/1.1/DTD/svg11.dtd">
<svg xmlns="http://www.w3.org/2000/svg" xmlns:xlink="http://www.w3.org/1999/xlink" version="1.1" baseProfile="full" width="16" height="16" viewBox="0 0 16.00 16.00" enable-background="new 0 0 16.00 16.00" xml:space="preserve">
	<path fill="#000000" fill-opacity="1" stroke-width="0.2" stroke-linejoin="round" d="M 0,2L 1,2L 1,3L 0,3L 0,2 Z M 3,3.00001L 2,3.00001L 2,2.00001L 3,2.00001L 3,3.00001 Z M 13,2.00001L 14,2.00001L 14,3.00001L 13,3.00001L 13,2.00001 Z M 0,4.00001L 1,4.00001L 1,5.00001L 0,5.00001L 0,4.00001 Z M 0,6L 1,6L 1,7L 0,7L 0,6 Z M 0,8L 1,8L 1,9L 0,9L 0,8 Z M 0,12L 1,12L 1,13L 0,13L 0,12 Z M 2,12L 3,12L 3,13L 2,13L 2,12 Z M 13,12L 14,12L 14,13L 13,13L 13,12 Z M 15,12L 16,12L 16,13L 15,13L 15,12 Z M 0,10L 1,10L 1,11L 0,11L 0,10 Z M 15,10L 16,10L 16,11L 15,11L 15,10 Z M 15,8L 16,8L 16,9L 15,9L 15,8 Z M 15,6L 16,6L 16,7L 15,7L 15,6 Z M 15,4.00001L 16,4.00001L 16,5.00001L 15,5.00001L 15,4.00001 Z M 16,2.00001L 16,3.00001L 15,3.00001L 15,2.00001L 16,2.00001 Z M 4,12L 12,12L 12,13L 4,13L 4,12 Z M 12,3.00001L 4,3.00001L 4,2.00001L 12,2.00001L 12,3.00001 Z M 5,9L 3,9L 3,8L 3.0225,8L 4.9375,5.00001L 4.985,5.00001L 5,5.00751L 5,5.00001L 6,5.00001L 6,8L 7,8L 7,9L 6,9L 6,10L 5,10L 5,9 Z M 5,8L 5,6.765L 4.21,8L 5,8 Z M 8.5,6C 8.77614,6 9,6.22386 9,6.5C 9,6.77614 8.77614,7 8.5,7C 8.22386,7 8,6.77614 8,6.5C 8,6.22386 8.22386,6 8.5,6 Z M 8.5,8C 8.77614,8 9,8.22386 9,8.5C 9,8.77614 8.77614,9 8.5,9C 8.22386,9 8,8.77614 8,8.5C 8,8.22386 8.22386,8 8.5,8 Z M 11.5,5C 12.3284,5 13,5.67157 13,6.5C 13,6.88418 12.8556,7.23462 12.6181,7.5C 12.8556,7.76538 13,8.11582 13,8.5C 13,9.32843 12.3284,10 11.5,10C 10.9794,10 10.5208,9.73481 10.2518,9.33214L 11.0839,8.77738C 11.1736,8.9116 11.3265,9 11.5,9C 11.7761,9 12,8.77614 12,8.5C 12,8.22386 11.7761,8 11.5,8L 11,8L 11,7L 11.5,7C 11.7761,7 12,6.77614 12,6.5C 12,6.22386 11.7761,6 11.5,6C 11.3265,6 11.1736,6.0884 11.0839,6.22262L 10.2518,5.66787C 10.5208,5.2652 10.9794,5 11.5,5 Z "/>
</svg>
