<?xml version="1.0" encoding="utf-8"?>
<!DOCTYPE svg PUBLIC "-//W3C//DTD SVG 1.1//EN" "http://www.w3.org/Graphics/SVG/1.1/DTD/svg11.dtd">
<svg xmlns="http://www.w3.org/2000/svg" xmlns:xlink="http://www.w3.org/1999/xlink" version="1.1" baseProfile="full" width="16" height="16" viewBox="0 0 16.00 16.00" enable-background="new 0 0 16.00 16.00" xml:space="preserve">
	<path fill="#000000" fill-opacity="1" stroke-width="0.2" stroke-linejoin="round" d="M 8,0C 12.4183,0 16,3.58172 16,8C 16,8 16,12 13,12C 11.4684,12 10.7187,11.2181 10.3518,10.3195C 9.71722,11.3367 8.67639,12 7.5,12C 5.567,12 4,10.2091 4,8C 4,5.79086 5.567,4 7.5,4C 8.47934,4 9.36474,4.4597 10,5.20058L 10,4L 11,4L 11,8C 11,9 11,11 13,11C 15,11 15,8 15,8C 15,4.13401 11.866,1 8,1C 4.13401,1 1,4.13401 1,8C 1,11.866 4.13401,15 8,15C 8.95432,15 9.86403,14.809 10.693,14.4632L 11.0777,15.3865C 10.1303,15.7818 9.09065,16 8,16C 3.58172,16 -6.35783e-007,12.4183 -6.35783e-007,8C -6.35783e-007,3.58172 3.58172,0 8,0 Z M 7.5,5C 6.11929,5 5,6.34315 5,8C 5,9.65686 6.11929,11 7.5,11C 8.88071,11 10,9.65686 10,8C 10,6.34315 8.88071,5 7.5,5 Z "/>
</svg>
