<?xml version="1.0" encoding="utf-8"?>
<!DOCTYPE svg PUBLIC "-//W3C//DTD SVG 1.1//EN" "http://www.w3.org/Graphics/SVG/1.1/DTD/svg11.dtd">
<svg xmlns="http://www.w3.org/2000/svg" xmlns:xlink="http://www.w3.org/1999/xlink" version="1.1" baseProfile="full" width="16" height="16" viewBox="0 0 16.00 16.00" enable-background="new 0 0 16.00 16.00" xml:space="preserve">
	<path fill="#000000" fill-opacity="1" stroke-width="0.2" stroke-linejoin="round" d="M 13,10.5C 13.3643,10.5 13.7058,10.5852 14,10.7341L 14,5.52993L 9,6.77657L 9,13.25C 9,14.2165 8.10457,15 7,15C 5.89543,15 5,14.2165 5,13.25C 5,12.2835 5.89543,11.5 7,11.5C 7.36428,11.5 7.70583,11.5852 8,11.7341L 8,6L 15,4.24999L 15,12.25C 15,13.2165 14.1046,14 13,14C 11.8954,14 11,13.2165 11,12.25C 11,11.2835 11.8954,10.5 13,10.5 Z M 13,11.5C 12.4477,11.5 12,11.8358 12,12.25C 12,12.6642 12.4477,13 13,13C 13.5523,13 14,12.6642 14,12.25C 14,11.8358 13.5523,11.5 13,11.5 Z M 6.99999,12.5C 6.44771,12.5 5.99999,12.8358 5.99999,13.25C 5.99999,13.6642 6.44771,14 6.99999,14C 7.55228,14 7.99999,13.6642 7.99999,13.25C 7.99999,12.8358 7.55228,12.5 6.99999,12.5 Z M 3,7.5C 3.36429,7.5 3.70582,7.58522 4,7.73412L 4,1L 5,1C 5,2.75 7,2.75 7,5L 6,5C 6,4 5,3.25 5,3.25L 5,9.25C 5,10.2165 4.10457,11 3,11C 1.89543,11 1,10.2165 1,9.25C 1,8.2835 1.89543,7.5 3,7.5 Z M 3,8.5C 2.44771,8.5 2,8.83579 2,9.25C 2,9.66422 2.44771,10 3,10C 3.55228,10 4,9.66422 4,9.25C 4,8.83579 3.55228,8.5 3,8.5 Z "/>
</svg>
