<?xml version="1.0" encoding="utf-8"?>
<!DOCTYPE svg PUBLIC "-//W3C//DTD SVG 1.1//EN" "http://www.w3.org/Graphics/SVG/1.1/DTD/svg11.dtd">
<svg xmlns="http://www.w3.org/2000/svg" xmlns:xlink="http://www.w3.org/1999/xlink" version="1.1" baseProfile="full" width="16" height="16" viewBox="0 0 16.00 16.00" enable-background="new 0 0 16.00 16.00" xml:space="preserve">
	<path fill="#000000" fill-opacity="1" stroke-width="1.33333" stroke-linejoin="miter" d="M 0.862285,15.8494C 0.667023,16.0447 0.350442,16.0447 0.15518,15.8494C -0.0400818,15.6541 -0.0400818,15.3376 0.15518,15.1423L 7.65051,7.64696C 7.84577,7.4517 8.16236,7.4517 8.35762,7.64696C 8.55288,7.84222 8.55288,8.1588 8.35762,8.35406L 0.862285,15.8494 Z M 10.4997,10C 10.2699,10 10.0712,9.83797 10.026,9.6121C 9.74979,7.25 8.74979,6.25004 6.38647,5.97311C 6.16109,5.92851 5.99874,5.73011 5.99874,5.50033C 5.99874,5.27055 6.1606,5.07215 6.38602,5.02751C 8.74947,4.75005 9.74979,3.75005 10.0258,1.38807C 10.0711,1.16268 10.2699,1 10.4997,1C 10.7295,1 10.9276,1.16268 10.9728,1.3886C 11.2498,3.75005 12.2496,4.75005 14.6115,5.02751C 14.8376,5.07215 15,5.27055 15,5.50033C 15,5.73011 14.8377,5.92851 14.6116,5.97311C 12.2498,6.25004 11.2498,7.25 10.9728,9.6121C 10.9276,9.83684 10.7295,10 10.4997,10 Z M 8.26851,5.50033C 9.49979,6.00004 9.99979,6.50004 10.4993,7.73047C 10.9998,6.50004 11.4995,6.00004 12.728,5.50033C 11.4995,5 10.9998,4.50005 10.4993,3.26958C 9.99979,4.50005 9.49979,5 8.26851,5.50033 Z M 14.5002,10.625L 14.3818,10.528C 14.3127,9.9375 14.0627,9.68751 13.4719,9.61828L 13.375,9.50008L 13.4718,9.38188C 14.0627,9.3125 14.3127,9.06251 14.3817,8.47202L 14.5002,8.375L 14.6185,8.47215C 14.6877,9.06251 14.9377,9.3125 15.5282,9.38188L 15.6253,9.50008L 15.5282,9.61828C 14.9377,9.68751 14.6877,9.9375 14.6185,10.528L 14.5002,10.625 Z M 14.4999,2.62483L 14.3815,2.52787C 14.3125,1.93743 14.0625,1.68747 13.4718,1.61825L 13.3749,1.50006L 13.4717,1.38189C 14.0624,1.31252 14.3125,1.06256 14.3815,0.47214L 14.4999,0.375145L 14.6182,0.472282C 14.6874,1.06256 14.9374,1.31252 15.5277,1.38189L 15.6249,1.50006L 15.5278,1.61825C 14.9374,1.68747 14.6874,1.93743 14.6182,2.52787L 14.4999,2.62483 Z M 6.49994,2.62484L 6.38152,2.52787C 6.31249,1.93744 6.06253,1.68748 5.47178,1.61826L 5.37487,1.50007L 5.47167,1.38189C 6.06245,1.31252 6.31249,1.06256 6.38149,0.472149L 6.49994,0.375154L 6.6182,0.472291C 6.68744,1.06256 6.93737,1.31252 7.52775,1.38189L 7.62487,1.50007L 7.52779,1.61826C 6.93741,1.68748 6.68744,1.93744 6.6182,2.52787L 6.49994,2.62484 Z "/>
</svg>
