<?xml version="1.0" encoding="utf-8"?>
<!DOCTYPE svg PUBLIC "-//W3C//DTD SVG 1.1//EN" "http://www.w3.org/Graphics/SVG/1.1/DTD/svg11.dtd">
<svg xmlns="http://www.w3.org/2000/svg" xmlns:xlink="http://www.w3.org/1999/xlink" version="1.1" baseProfile="full" width="16" height="16" viewBox="0 0 16.00 16.00" enable-background="new 0 0 16.00 16.00" xml:space="preserve">
	<path fill="#000000" fill-opacity="1" stroke-width="0.2" stroke-linejoin="round" d="M 0.862288,15.8494C 0.667026,16.0447 0.350444,16.0447 0.155183,15.8494C -0.0400792,15.6541 -0.0400793,15.3376 0.155182,15.1423L 7.65052,7.64696C 7.84578,7.45169 8.16236,7.45169 8.35762,7.64696C 8.55288,7.84222 8.55288,8.1588 8.35762,8.35406L 0.862288,15.8494 Z M 6.38647,5.97311C 6.16109,5.92851 5.99874,5.73011 5.99874,5.50033C 5.99874,5.27056 6.1606,5.07215 6.38602,5.02752C 8.74947,4.75005 9.74979,3.75005 10.0258,1.38807C 10.0711,1.16269 10.2699,1.00001 10.4997,1.00001C 10.7295,1.00001 10.9276,1.16269 10.9728,1.3886C 11.2498,3.75005 12.2496,4.75005 14.6115,5.02752C 14.8376,5.07215 15,5.27056 15,5.50033C 15,5.73011 14.8377,5.92851 14.6116,5.97311C 12.9401,6.1691 11.9507,6.72723 11.4169,7.87403C 10.8415,8.00824 10.3062,8.24706 9.83223,8.56936C 9.39031,6.94521 8.36722,6.20521 6.38647,5.97311 Z M 8.26851,5.50033C 9.49979,6.00004 9.99979,6.50004 10.4993,7.73047C 10.9998,6.50004 11.4995,6.00004 12.728,5.50033C 11.4995,5.00001 10.9998,4.50005 10.4993,3.26958C 9.99979,4.50005 9.49979,5.00001 8.26851,5.50033 Z M 14.4999,2.62483L 14.3815,2.52787C 14.3125,1.93744 14.0625,1.68748 13.4718,1.61825L 13.3748,1.50007L 13.4716,1.38189C 14.0624,1.31253 14.3125,1.06257 14.3815,0.472144L 14.4999,0.375149L 14.6182,0.472286C 14.6874,1.06257 14.9373,1.31253 15.5277,1.38189L 15.6248,1.50007L 15.5278,1.61825C 14.9374,1.68748 14.6874,1.93744 14.6182,2.52787L 14.4999,2.62483 Z M 6.49994,2.62484L 6.38152,2.52788C 6.31249,1.93744 6.06253,1.68748 5.47178,1.61826L 5.37487,1.50008L 5.47167,1.38189C 6.06245,1.31253 6.31249,1.06257 6.38149,0.472153L 6.49994,0.375157L 6.6182,0.472295C 6.68744,1.06257 6.93737,1.31253 7.52775,1.38189L 7.62487,1.50008L 7.52779,1.61826C 6.93741,1.68748 6.68744,1.93744 6.6182,2.52788L 6.49994,2.62484 Z M 12.5,9C 14.433,9 16,10.567 16,12.5C 16,14.433 14.433,16 12.5,16C 10.567,16 9,14.433 9,12.5C 9,10.567 10.567,9 12.5,9 Z M 10.7322,14.2678C 11.5875,15.123 12.9082,15.2291 13.8788,14.586L 10.414,11.1211C 9.77094,12.0918 9.877,13.4125 10.7322,14.2678 Z M 14.2678,10.7322C 13.4125,9.877 12.0918,9.77094 11.1211,10.414L 14.586,13.8789C 15.2291,12.9082 15.123,11.5875 14.2678,10.7322 Z "/>
</svg>
