<?xml version="1.0" encoding="utf-8"?>
<!DOCTYPE svg PUBLIC "-//W3C//DTD SVG 1.1//EN" "http://www.w3.org/Graphics/SVG/1.1/DTD/svg11.dtd">
<svg xmlns="http://www.w3.org/2000/svg" xmlns:xlink="http://www.w3.org/1999/xlink" version="1.1" baseProfile="full" width="16" height="16" viewBox="0 0 16.00 16.00" enable-background="new 0 0 16.00 16.00" xml:space="preserve">
	<path fill="#000000" fill-opacity="1" stroke-width="0.2" stroke-linejoin="round" d="M 14.6667,6L 14.6667,12L 15.6667,15L 0.666667,15L 1.66667,12L 1.66667,6L 0.666667,6L 0.666667,5L 8.16667,1.25L 15.6667,5L 15.6667,6L 14.6667,6 Z M 2.90167,5L 13.4317,5L 8.16667,2.3675L 2.90167,5 Z M 12.6667,6L 12.6667,12L 13.6667,12L 13.6667,6L 12.6667,6 Z M 10.6667,6L 10.6667,12L 11.6667,12L 11.6667,6L 10.6667,6 Z M 8.66667,6L 8.66667,12L 9.66667,12L 9.66667,6L 8.66667,6 Z M 6.66667,6L 6.66667,12L 7.66667,12L 7.66667,6L 6.66667,6 Z M 4.66667,6L 4.66667,12L 5.66667,12L 5.66667,6L 4.66667,6 Z M 2.66667,12L 3.66667,12L 3.66667,6L 2.66667,6L 2.66667,12 Z M 14.2767,14L 13.9492,13L 2.38667,13L 2.05667,14L 14.2767,14 Z "/>
</svg>
