<?xml version="1.0" encoding="utf-8"?>
<!DOCTYPE svg PUBLIC "-//W3C//DTD SVG 1.1//EN" "http://www.w3.org/Graphics/SVG/1.1/DTD/svg11.dtd">
<svg xmlns="http://www.w3.org/2000/svg" xmlns:xlink="http://www.w3.org/1999/xlink" version="1.1" baseProfile="full" width="16" height="16" viewBox="0 0 16.00 16.00" enable-background="new 0 0 16.00 16.00" xml:space="preserve">
	<path fill="#000000" fill-opacity="1" stroke-width="0.2" stroke-linejoin="round" d="M 16,3.9925L 14.54,5.4525L 15.415,6.3275L 13.2825,8.4675L 10.79,5.9775L 5.7975,10.96L 8.2975,13.4525L 6.1575,15.585L 5.1475,14.5775L 3.7275,16L 2.235,14.5225L 1.5225,15.235L 0.820001,14.5225L 1.5225,13.8125L 6.35783e-007,12.2975L 1.43,10.8675L 0.460002,9.89001L 2.595,7.7575L 5.095,10.25L 10.0775,5.265L 7.5775,2.7725L 9.72,0.632501L 10.555,1.4675L 12.0325,9.53674e-007L 13.68,1.655L 14.3525,0.9925L 15.0625,1.7025L 14.39,2.375L 16,3.9925 Z M 3.72,14.5775L 4.4375,13.8675L 2.14001,11.5775L 1.4225,12.2975L 3.72,14.5775 Z M 6.875,13.4525L 2.595,9.18L 1.8825,9.89001L 6.1575,14.165L 6.875,13.4525 Z M 12.0225,1.4225L 11.265,2.18L 13.8275,4.7425L 14.5775,3.9925L 12.0225,1.4225 Z M 13.2825,7.0475L 13.9925,6.3275L 9.72,2.055L 9,2.7725L 13.2825,7.0475 Z "/>
</svg>
