<?xml version="1.0" encoding="utf-8"?>
<!DOCTYPE svg PUBLIC "-//W3C//DTD SVG 1.1//EN" "http://www.w3.org/Graphics/SVG/1.1/DTD/svg11.dtd">
<svg xmlns="http://www.w3.org/2000/svg" xmlns:xlink="http://www.w3.org/1999/xlink" version="1.1" baseProfile="full" width="16" height="16" viewBox="0 0 16.00 16.00" enable-background="new 0 0 16.00 16.00" xml:space="preserve">
	<path fill="#000000" fill-opacity="1" stroke-width="0.2" stroke-linejoin="round" d="M 8,0C 12.4183,0 16,3.58172 16,8C 16,12.4183 12.4183,16 8,16C 3.58172,16 -6.35783e-007,12.4183 -6.35783e-007,8C -6.35783e-007,3.58172 3.58172,0 8,0 Z M 7.99999,1.00002C 4.134,1.00002 0.999998,4.13402 0.999998,8.00001C 0.999998,11.866 4.134,15 7.99999,15C 11.866,15 15,11.866 15,8.00001C 15,4.13403 11.866,1.00002 7.99999,1.00002 Z M 7.09999,4.50001C 7.37614,4.50001 7.59999,4.72387 7.59999,5.00001C 7.59999,5.27616 7.37613,5.50001 7.09999,5.50001C 6.82385,5.50001 6.59999,5.27616 6.59999,5.00001C 6.59999,4.72387 6.82385,4.50001 7.09999,4.50001 Z M 5.49999,4.10001C 5.77614,4.10001 5.99999,4.32387 5.99999,4.60001C 5.99999,4.87615 5.77614,5.10001 5.49999,5.10001C 5.22386,5.10001 5,4.87615 5,4.60001C 5,4.32387 5.22385,4.10001 5.49999,4.10001 Z M 3.9,3.50001C 4.17614,3.50001 4.4,3.72387 4.4,4.00001C 4.4,4.27615 4.17614,4.50001 3.9,4.50001C 3.62385,4.50001 3.4,4.27615 3.4,4.00001C 3.4,3.72387 3.62385,3.50001 3.9,3.50001 Z M 8.89999,4.50001C 9.17614,4.50001 9.39999,4.72387 9.39999,5.00001C 9.39999,5.27615 9.17613,5.5 8.89999,5.5C 8.62385,5.5 8.39999,5.27615 8.39999,5.00001C 8.39999,4.72387 8.62385,4.50001 8.89999,4.50001 Z M 10.5,4.10001C 10.7761,4.10001 11,4.32386 11,4.60001C 11,4.87615 10.7761,5.10001 10.5,5.10001C 10.2238,5.10001 9.99999,4.87615 9.99999,4.60001C 9.99999,4.32386 10.2238,4.10001 10.5,4.10001 Z M 12.1,3.50001C 12.3761,3.50001 12.6,3.72386 12.6,4.00001C 12.6,4.27615 12.3761,4.50001 12.1,4.50001C 11.8238,4.50001 11.6,4.27615 11.6,4.00001C 11.6,3.72386 11.8238,3.50001 12.1,3.50001 Z M 7.1,11.5C 6.82385,11.5 6.6,11.2761 6.6,11C 6.6,10.7239 6.82386,10.5 7.1,10.5C 7.37614,10.5 7.6,10.7239 7.6,11C 7.6,11.2761 7.37614,11.5 7.1,11.5 Z M 5.5,11.9C 5.22386,11.9 5,11.6761 5,11.4C 5,11.1239 5.22386,10.9 5.5,10.9C 5.77614,10.9 6,11.1239 6,11.4C 6,11.6761 5.77614,11.9 5.5,11.9 Z M 3.9,12.5C 3.62386,12.5 3.4,12.2761 3.4,12C 3.4,11.7239 3.62386,11.5 3.9,11.5C 4.17614,11.5 4.4,11.7239 4.4,12C 4.4,12.2761 4.17614,12.5 3.9,12.5 Z M 8.9,11.5C 8.62385,11.5 8.4,11.2761 8.4,11C 8.4,10.7239 8.62385,10.5 8.9,10.5C 9.17614,10.5 9.4,10.7239 9.4,11C 9.4,11.2761 9.17614,11.5 8.9,11.5 Z M 10.5,11.9C 10.2239,11.9 10,11.6761 10,11.4C 10,11.1239 10.2239,10.9 10.5,10.9C 10.7761,10.9 11,11.1239 11,11.4C 11,11.6761 10.7761,11.9 10.5,11.9 Z M 12.1,12.5C 11.8239,12.5 11.6,12.2761 11.6,12C 11.6,11.7239 11.8239,11.5 12.1,11.5C 12.3761,11.5 12.6,11.7239 12.6,12C 12.6,12.2761 12.3761,12.5 12.1,12.5 Z "/>
</svg>
