<?xml version="1.0" encoding="utf-8"?>
<!DOCTYPE svg PUBLIC "-//W3C//DTD SVG 1.1//EN" "http://www.w3.org/Graphics/SVG/1.1/DTD/svg11.dtd">
<svg xmlns="http://www.w3.org/2000/svg" xmlns:xlink="http://www.w3.org/1999/xlink" version="1.1" baseProfile="full" width="16" height="16" viewBox="0 0 16.00 16.00" enable-background="new 0 0 16.00 16.00" xml:space="preserve">
	<path fill="#000000" fill-opacity="1" stroke-width="0.2" stroke-linejoin="round" d="M 8,8L 9.7664,8C 9.8798,6.27724 10.5749,4.71336 11.6571,3.50294C 10.6502,2.66436 9.38583,2.12437 8,2.01895L 8,8 Z M 13.9811,8C 13.8706,6.54805 13.2831,5.22944 12.375,4.20054C 11.4669,5.22944 10.8794,6.54805 10.7689,8L 13.9811,8 Z M 8,9L 8,14.9811C 9.38583,14.8756 10.6502,14.3356 11.6571,13.4971C 10.5749,12.2866 9.87979,10.7228 9.7664,9L 8,9 Z M 13.981,9L 10.7689,9C 10.8794,10.452 11.4669,11.7706 12.375,12.7995C 13.2831,11.7706 13.8706,10.452 13.981,9 Z M 7,9L 5.2336,9C 5.1202,10.7228 4.42511,12.2866 3.34289,13.4971C 4.34981,14.3356 5.61417,14.8756 7,14.9811L 7,9 Z M 1.01894,9C 1.1294,10.452 1.71687,11.7706 2.625,12.7995C 3.53313,11.7706 4.1206,10.452 4.23105,9L 1.01894,9 Z M 7,8L 7,2.01895C 5.61417,2.12437 4.34982,2.66436 3.3429,3.50294C 4.42512,4.71337 5.12021,6.27724 5.2336,8L 7,8 Z M 1.01894,8L 4.23105,8C 4.1206,6.54805 3.53313,5.22944 2.625,4.20054C 1.71687,5.22944 1.1294,6.54805 1.01894,8 Z M 7.5,1C 11.6421,1 15,4.35787 15,8.5C 15,12.6421 11.6421,16 7.5,16C 3.35786,16 9.93426e-009,12.6421 9.93426e-009,8.5C 9.93426e-009,4.35787 3.35786,1 7.5,1 Z "/>
</svg>
