<?xml version="1.0" encoding="utf-8"?>
<!DOCTYPE svg PUBLIC "-//W3C//DTD SVG 1.1//EN" "http://www.w3.org/Graphics/SVG/1.1/DTD/svg11.dtd">
<svg xmlns="http://www.w3.org/2000/svg" xmlns:xlink="http://www.w3.org/1999/xlink" version="1.1" baseProfile="full" width="16" height="16" viewBox="0 0 16.00 16.00" enable-background="new 0 0 16.00 16.00" xml:space="preserve">
	<path fill="#000000" fill-opacity="1" stroke-width="0.2" stroke-linejoin="round" d="M 15,6.99999L 16,6.99999L 16,8.99999L 15,8.99999L 15,12L 4,12L 4,11L 14,11L 14,5L 5.96455,5C 5.91405,4.64693 5.81085,4.31086 5.66318,4L 15,4L 15,6.99999 Z M 2,5L 3,5L 3,6.91464C 3.58259,6.70873 4,6.15311 4,5.5C 4,4.5 2.5,3.25 2.5,3.25C 2.5,3.25 0.999999,4.5 0.999999,5.5C 0.999999,6.15311 1.4174,6.70873 2,6.91464L 2,5 Z M 3,12L 2,12L 2,7.94999C 0.858879,7.71835 -8.33703e-013,6.70948 -8.33703e-013,5.5C -8.33703e-013,4 2.5,2 2.5,2C 2.5,2 5,4 5,5.5C 5,6.70948 4.14112,7.71835 3,7.94999L 3,12 Z M 4,9.99999L 4,8.66318C 5.03869,8.16975 5.7958,7.17977 5.96455,6L 8,6L 8,10L 4,9.99999 Z "/>
</svg>
