<?xml version="1.0" encoding="utf-8"?>
<!DOCTYPE svg PUBLIC "-//W3C//DTD SVG 1.1//EN" "http://www.w3.org/Graphics/SVG/1.1/DTD/svg11.dtd">
<svg xmlns="http://www.w3.org/2000/svg" xmlns:xlink="http://www.w3.org/1999/xlink" version="1.1" baseProfile="full" width="16" height="16" viewBox="0 0 16.00 16.00" enable-background="new 0 0 16.00 16.00" xml:space="preserve">
	<path fill="#000000" fill-opacity="1" stroke-width="0.2" stroke-linejoin="round" d="M 15,7L 16,7L 16,9L 15,9L 15,12L 4,12L 4,11L 14,11L 14,5.00001L 6,5L 6,4L 15,4.00001L 15,7 Z M 1,4.00001L 1,2.00001L 2,2.00001L 2,4.00001L 3,4.00001L 3,2.00001L 4,2.00001L 4,4.00001L 5,4.00001L 5,5.50001C 5,6.70948 4.14112,7.71836 3,7.94999L 3,12L 2,12L 2,7.95C 0.858879,7.71836 0,6.70948 0,5.50001L 0,4.00001L 1,4.00001 Z M 1,5.5C 1,6.32843 1.67157,7 2.5,7C 3.32842,7 4,6.32843 4,5.5L 4,5.00001L 1,5.00001L 1,5.5 Z M 4,10L 4,8.66319C 5.0387,8.16976 5.83125,7.17977 6,6L 6,10L 4,10 Z "/>
</svg>
