<?xml version="1.0" encoding="utf-8"?>
<!DOCTYPE svg PUBLIC "-//W3C//DTD SVG 1.1//EN" "http://www.w3.org/Graphics/SVG/1.1/DTD/svg11.dtd">
<svg xmlns="http://www.w3.org/2000/svg" xmlns:xlink="http://www.w3.org/1999/xlink" version="1.1" baseProfile="full" width="16" height="16" viewBox="0 0 16.00 16.00" enable-background="new 0 0 16.00 16.00" xml:space="preserve">
	<path fill="#000000" fill-opacity="1" stroke-width="0.2" stroke-linejoin="round" d="M 15,6.99999L 16,6.99999L 16,8.99999L 15,8.99999L 15,12L 4,12L 4,11L 14,11L 14,5.00001L 6,5L 6,4L 15,4L 15,6.99999 Z M 1.00001,4L 1.00001,2L 2.00001,2L 2.00001,4L 3,4L 3,2L 4,2L 4,4L 5,4L 5,5.5C 5,6.70948 4.14112,7.71835 3.00001,7.94999L 3.00001,12L 2.00001,12L 2.00001,7.94999C 0.858885,7.71835 5.92073e-006,6.70948 5.92073e-006,5.5L 6.23862e-006,4L 1.00001,4 Z M 1.00001,5.5C 1.00001,6.32843 1.67158,7 2.50001,7C 3.32843,7 4,6.32843 4,5.5L 4,5L 1.00001,5L 1.00001,5.5 Z M 11,10L 4,10L 4,8.66318C 5.0387,8.16975 5.79581,7.17977 5.96456,6L 11,6L 11,10 Z "/>
</svg>
