<?xml version="1.0" encoding="utf-8"?>
<!DOCTYPE svg PUBLIC "-//W3C//DTD SVG 1.1//EN" "http://www.w3.org/Graphics/SVG/1.1/DTD/svg11.dtd">
<svg xmlns="http://www.w3.org/2000/svg" xmlns:xlink="http://www.w3.org/1999/xlink" version="1.1" baseProfile="full" width="16" height="16" viewBox="0 0 16.00 16.00" enable-background="new 0 0 16.00 16.00" xml:space="preserve">
	<path fill="#000000" fill-opacity="1" stroke-width="0.2" stroke-linejoin="round" d="M 7,7L 9,7L 9,5L 7,5L 7,7 Z M 9,8L 7,8L 7,11.5C 7,13.433 5.433,15 3.5,15C 1.56701,15 3.49681e-006,13.433 3.49681e-006,11.5C 3.49681e-006,11.0957 0.0685634,10.7074 0.194692,10.3461L 3.04662,1.56872C 3.24383,0.671453 4.04351,4.76837e-006 5,4.76837e-006C 6.10457,4.76837e-006 7,0.895432 7,2L 7,4L 9,4L 9,2C 9,0.895431 9.89543,2.86102e-006 11,2.86102e-006C 11.9565,2.86102e-006 12.7562,0.671451 12.9534,1.56871L 15.8053,10.3461C 15.9314,10.7074 16,11.0957 16,11.5C 16,13.433 14.433,15 12.5,15C 10.567,15 9,13.433 9,11.5L 9,8 Z M 6,2C 6,1.44773 5.55228,1.00001 5,1.00001C 4.55638,1.00001 4.18023,1.28888 4.04938,1.68877L 4.05815,1.69162L 1.87945,8.39697C 2.36397,8.14341 2.91524,8 3.5,8C 4.47935,8 5.36474,8.40224 6,9.05051L 6,2 Z M 3.5,9C 2.11929,9 1,10.1193 1,11.5C 1,12.8807 2.11929,14 3.5,14C 4.88071,14 6,12.8807 6,11.5C 6,10.1193 4.88071,9 3.5,9 Z M 10,2L 10,9.05051C 10.6353,8.40223 11.5207,8 12.5,8C 13.0848,8 13.636,8.1434 14.1206,8.39697L 11.9419,1.69162L 11.9506,1.68877C 11.8198,1.28887 11.4436,1.00001 11,1.00001C 10.4477,1.00001 10,1.44772 10,2 Z M 12.5,9C 11.1193,9 10,10.1193 10,11.5C 10,12.8807 11.1193,14 12.5,14C 13.8807,14 15,12.8807 15,11.5C 15,10.1193 13.8807,9 12.5,9 Z "/>
</svg>
