<?xml version="1.0" encoding="utf-8"?>
<!DOCTYPE svg PUBLIC "-//W3C//DTD SVG 1.1//EN" "http://www.w3.org/Graphics/SVG/1.1/DTD/svg11.dtd">
<svg xmlns="http://www.w3.org/2000/svg" xmlns:xlink="http://www.w3.org/1999/xlink" version="1.1" baseProfile="full" width="16" height="16" viewBox="0 0 16.00 16.00" enable-background="new 0 0 16.00 16.00" xml:space="preserve">
	<path fill="#000000" fill-opacity="1" stroke-width="0.2" stroke-linejoin="round" d="M 3.5,1L 6,1L 6,9.53674e-007L 9,9.53674e-007L 9,1L 11.5,1C 11.7761,1 12,1.22386 12,1.5C 12,1.77614 11.7761,2 11.5,2L 11,2L 11,3C 12.1046,3 13,3.89544 13,5L 13,8.5C 13,8.77614 12.7761,9 12.5,9C 12.2239,9 12,8.77614 12,8.5L 12,5C 12,4.44772 11.5523,4.00001 11,4.00001L 11,8C 11,8.74028 10.5978,9.38662 10,9.73244L 10,11.0505C 10.6186,11.6818 11,12.5463 11,13.5L 11,15L 11.5,15C 11.7761,15 12,15.2239 12,15.5C 12,15.7761 11.7761,16 11.5,16L 3.5,16C 3.22385,16 3,15.7761 3,15.5C 3,15.2239 3.22385,15 3.5,15L 4,15L 4,13.5C 4,12.5463 4.38141,11.6818 5,11.0505L 5,9.73244C 4.4022,9.38663 4,8.74028 4,8L 4,2L 3.5,2C 3.22386,2 3,1.77614 3,1.5C 3,1.22386 3.22386,1 3.5,1 Z M 8.99999,10L 7.50002,10C 8.03681,10 8.54537,10.1208 8.99999,10.3368L 8.99999,10 Z M 6,10L 6,10.3368C 6.45462,10.1208 6.96318,10 7.49997,10L 6,10 Z M 10,8L 10,2.00001L 5,2.00001L 5,3.00002L 6.49999,3.00002C 6.77613,3.00002 6.99999,3.22388 6.99999,3.50002C 6.99999,3.77616 6.77613,4.00002 6.49999,4.00002L 5,4.00002L 5,5.00002L 6.49999,5.00002C 6.77613,5.00002 6.99999,5.22387 6.99999,5.50001C 6.99999,5.77615 6.77613,6.00001 6.49999,6.00001L 5,6.00001L 5,7.00001L 6.49999,7.00001C 6.77613,7.00001 6.99999,7.22386 6.99999,7.50001C 6.99999,7.77615 6.77613,8.00001 6.49999,8.00001L 5,8.00001C 5,8.55229 5.44771,9.00001 5.99999,9.00001L 8.99999,9.00001C 9.55228,9.00001 10,8.55229 10,8 Z M 7.5,13C 7.77614,13 8,13.2239 8,13.5C 8,13.7761 7.77614,14 7.5,14C 7.22386,14 7,13.7761 7,13.5C 7,13.2239 7.22386,13 7.5,13 Z M 10,15L 10,13.5C 10,12.1193 8.88071,11 7.5,11C 6.11929,11 5,12.1193 5,13.5L 5,15L 10,15 Z "/>
</svg>
