<?xml version="1.0" encoding="utf-8"?>
<!DOCTYPE svg PUBLIC "-//W3C//DTD SVG 1.1//EN" "http://www.w3.org/Graphics/SVG/1.1/DTD/svg11.dtd">
<svg xmlns="http://www.w3.org/2000/svg" xmlns:xlink="http://www.w3.org/1999/xlink" version="1.1" baseProfile="full" width="16" height="16" viewBox="0 0 16.00 16.00" enable-background="new 0 0 16.00 16.00" xml:space="preserve">
	<path fill="#000000" fill-opacity="1" stroke-width="0.2" stroke-linejoin="round" d="M 1,2C 1,0.895432 1.89543,9.53674e-007 3,9.53674e-007L 14,0L 14,16L 3,16C 1.89543,16 1,15.1046 1,14L 1,2 Z M 3,15L 13,15L 13,13L 3,13C 2.44771,13 2,13.4477 2,14C 2,14.5523 2.44772,15 3,15 Z M 3,12L 13,12L 13,1L 3,1C 2.44772,1 2,1.44772 2,2L 2,12.2676C 2.29417,12.0974 2.63571,12 3,12 Z M 4,3L 11,3L 11,6L 4,6L 4,3 Z M 5,4L 5,5L 10,5L 10,4L 5,4 Z "/>
</svg>
