<?xml version="1.0" encoding="utf-8"?>
<!DOCTYPE svg PUBLIC "-//W3C//DTD SVG 1.1//EN" "http://www.w3.org/Graphics/SVG/1.1/DTD/svg11.dtd">
<svg xmlns="http://www.w3.org/2000/svg" xmlns:xlink="http://www.w3.org/1999/xlink" version="1.1" baseProfile="full" width="16" height="16" viewBox="0 0 16.00 16.00" enable-background="new 0 0 16.00 16.00" xml:space="preserve">
	<path fill="#000000" fill-opacity="1" stroke-width="0.2" stroke-linejoin="round" d="M 6.43625,5.06375L 9.32875,7.96125L 6.43625,10.8587L 7.14125,11.5637L 10.7487,7.96125L 7.14125,4.35875L 6.43625,5.06375 Z M 8.03875,0.961251C 4.17276,0.961251 1.03875,4.09526 1.03875,7.96125C 1.03875,11.8272 4.17276,14.9613 8.03875,14.9613C 11.9047,14.9613 15.0387,11.8272 15.0387,7.96125C 15.0387,4.09526 11.9047,0.961251 8.03875,0.961251 Z M 8.03875,1.96125C 11.3525,1.96125 14.0387,4.64755 14.0387,7.96125C 14.0387,11.275 11.3525,13.9613 8.03875,13.9613C 4.72504,13.9613 2.03875,11.275 2.03875,7.96125C 2.03875,4.64754 4.72504,1.96125 8.03875,1.96125 Z "/>
</svg>
