<?xml version="1.0" encoding="utf-8"?>
<!DOCTYPE svg PUBLIC "-//W3C//DTD SVG 1.1//EN" "http://www.w3.org/Graphics/SVG/1.1/DTD/svg11.dtd">
<svg xmlns="http://www.w3.org/2000/svg" xmlns:xlink="http://www.w3.org/1999/xlink" version="1.1" baseProfile="full" width="16" height="16" viewBox="0 0 16.00 16.00" enable-background="new 0 0 16.00 16.00" xml:space="preserve">
	<path fill="#000000" fill-opacity="1" stroke-width="0.2" stroke-linejoin="round" d="M 7.5,1C 11.6421,1 15,4.35787 15,8.5C 15,12.6421 11.6421,16 7.5,16C 3.35786,16 -6.35783e-007,12.6421 -6.35783e-007,8.5C -6.35783e-007,4.35787 3.35786,1 7.5,1 Z M 7.5,2C 4.07838,2 1.27426,4.64378 1.01894,8L 4.03544,8C 4.27806,6.30385 5.73676,5 7.5,5C 9.26324,5 10.7219,6.30386 10.9646,8L 13.981,8C 13.7257,4.64378 10.9216,2 7.5,2 Z M 7.5,15C 10.9216,15 13.7257,12.3562 13.981,9L 10.9646,9C 10.7219,10.6961 9.26324,12 7.5,12C 5.73676,12 4.27806,10.6961 4.03544,9L 1.01894,9C 1.27426,12.3562 4.07838,15 7.5,15 Z M 7.5,6C 6.11929,6 5,7.11929 5,8.5C 5,9.88071 6.11929,11 7.5,11C 8.88071,11 10,9.88071 10,8.5C 10,7.11929 8.88071,6 7.5,6 Z M 7.5,7C 8.32843,7 9,7.67157 9,8.5C 9,9.32843 8.32843,10 7.5,10C 6.67157,10 6,9.32843 6,8.5C 6,7.67157 6.67157,7 7.5,7 Z "/>
</svg>
